<?xml version="1.0" standalone="no"?>
<!DOCTYPE svg PUBLIC "-//W3C//DTD SVG 20010904//EN"
 "http://www.w3.org/TR/2001/REC-SVG-20010904/DTD/svg10.dtd">
<svg version="1.0" xmlns="http://www.w3.org/2000/svg"
 width="184.000000pt" height="184.000000pt" viewBox="0 0 184.000000 184.000000"
 preserveAspectRatio="xMidYMid meet">
<metadata>
Created by potrace 1.11, written by Peter Selinger 2001-2013
</metadata>
<g transform="translate(0.000000,184.000000) scale(0.100000,-0.100000)"
fill="#000000" stroke="none">
<path d="M0 1829 c0 -5 5 -7 10 -4 5 3 10 8 10 11 0 2 -4 4 -10 4 -5 0 -10 -5
-10 -11z"/>
<path d="M385 1808 c23 -107 24 -103 -46 -138 -76 -39 -163 -120 -204 -190
-29 -49 -31 -51 -67 -46 -20 3 -43 9 -52 12 -12 4 -16 0 -16 -15 0 -18 6 -21
45 -21 25 0 45 -4 45 -10 0 -5 -6 -34 -14 -64 -42 -161 -27 -339 40 -466 19
-35 34 -68 34 -72 0 -13 -54 -9 -100 7 -53 19 -50 20 -50 -11 0 -14 4 -23 10
-19 6 3 10 1 10 -4 0 -6 7 -11 16 -11 10 0 14 -7 12 -17 -2 -10 -10 -17 -17
-15 -8 2 -11 -5 -7 -20 4 -16 1 -13 -9 7 l-15 30 3 -45 c2 -40 6 -47 42 -68
l40 -24 -42 5 -42 5 2 -47 c2 -42 5 -47 35 -60 41 -19 41 -27 -3 -35 -19 -4
-35 -11 -35 -16 0 -12 7 -12 50 0 89 26 159 31 230 16 190 -40 301 -174 287
-345 l-5 -66 15 45 c8 27 12 63 9 89 -5 39 -4 42 11 30 23 -19 43 -72 43 -112
0 -28 -6 -37 -38 -55 -21 -11 -46 -30 -57 -42 l-18 -20 136 0 c136 0 137 0
137 23 0 12 -7 32 -15 44 -10 14 -13 32 -9 48 l6 26 21 -33 c11 -18 21 -43 21
-55 2 -27 34 -53 55 -45 11 4 9 7 -7 13 -32 12 -38 48 -12 73 19 17 22 18 17
4 -4 -10 -2 -18 3 -18 12 0 13 37 1 44 -5 3 -14 -1 -21 -9 -25 -30 -50 -12
-50 36 0 20 15 26 25 9 3 -5 11 -10 18 -10 6 0 3 6 -6 13 -10 6 -20 29 -24 50
-5 33 -3 37 15 37 11 0 35 -17 52 -37 18 -21 30 -31 28 -23 -7 22 42 61 72 58
32 -4 37 -31 11 -60 -12 -12 -21 -16 -21 -9 0 7 -5 9 -10 6 -8 -5 -7 -12 2
-22 10 -13 5 -22 -30 -55 -42 -39 -42 -40 -15 -34 21 5 43 -1 83 -23 30 -16
54 -34 52 -40 -1 -6 13 -11 32 -11 25 0 39 7 50 22 26 37 19 57 -9 26 -23 -27
-43 -38 -30 -18 3 5 -2 10 -13 10 -11 0 -31 9 -44 20 -14 11 -38 24 -53 30
l-27 10 41 45 c22 24 41 49 41 55 0 18 -53 70 -71 70 -10 0 -30 -10 -45 -23
l-26 -23 -30 28 c-50 46 -78 32 -79 -42 0 -25 -3 -39 -6 -32 -8 21 -20 13 -34
-20 l-13 -33 -3 28 c-6 39 -23 33 -23 -8 0 -31 -3 -35 -25 -35 -17 0 -25 6
-25 18 -1 25 -38 103 -61 128 l-21 22 44 7 c24 4 61 16 82 27 43 22 115 18
136 -7 17 -20 90 -29 137 -16 38 10 73 44 73 71 0 17 -17 11 -22 -8 -6 -20
-67 -42 -120 -42 -20 0 -50 10 -70 23 -28 20 -53 25 -137 31 -92 5 -113 11
-186 45 -45 21 -85 43 -88 48 -3 5 12 27 33 48 74 73 76 151 3 123 -18 -7 -35
-10 -37 -7 -4 4 12 76 20 87 1 2 19 -2 39 -9 26 -10 35 -18 33 -33 -4 -28 20
-32 30 -5 11 29 107 56 116 32 3 -7 10 -13 17 -13 6 0 8 7 5 16 -4 11 8 28 37
55 52 46 87 119 94 200 5 52 -2 88 -32 162 -6 13 -2 17 17 17 40 0 40 11 -3
53 -55 55 -138 208 -112 207 4 -1 20 -16 34 -35 32 -42 115 -108 188 -150 63
-35 64 -39 32 -125 -26 -69 -26 -141 -2 -219 30 -97 116 -199 159 -188 14 3
12 6 -8 15 -56 24 -124 112 -137 174 l-6 31 34 -25 c81 -61 200 -97 327 -98
l53 0 -24 -32 c-14 -18 -32 -47 -41 -65 -13 -27 -22 -33 -58 -36 -36 -3 -35
-4 11 -4 44 1 56 -3 71 -23 23 -31 47 -18 26 15 -14 22 -14 24 9 39 13 9 26
16 28 16 2 0 17 -20 33 -45 15 -25 41 -51 56 -58 15 -6 28 -15 28 -19 0 -13
-82 -9 -140 7 -64 17 -110 19 -110 5 0 -19 48 -87 76 -107 l28 -20 -55 -16
c-30 -8 -89 -23 -131 -33 -43 -10 -78 -21 -78 -24 0 -15 208 28 253 52 14 7
32 4 67 -11 80 -34 177 -26 226 20 21 19 21 19 65 -1 24 -11 63 -20 87 -20 41
0 42 1 41 33 -1 17 -3 24 -6 15 -5 -19 -23 -25 -23 -8 0 6 -5 10 -11 10 -5 0
-7 -4 -4 -10 3 -5 0 -10 -8 -10 -8 0 -17 8 -19 18 -3 10 -15 18 -29 19 -16 2
-19 -1 -11 -6 11 -7 11 -9 -1 -14 -8 -3 -24 1 -36 10 -20 14 -24 13 -47 -10
-22 -22 -29 -24 -70 -16 -25 5 -48 8 -52 8 -4 -1 -16 -1 -26 0 -15 1 -17 4 -9
12 8 8 21 8 48 -1 20 -7 39 -9 42 -6 4 3 1 6 -5 6 -6 0 -23 5 -39 12 -15 6
-30 12 -33 12 -3 1 -10 5 -17 9 -13 8 -62 2 -72 -9 -3 -4 2 -4 12 -1 9 4 17 2
17 -3 0 -14 -17 -12 -56 6 -37 18 -38 36 -1 27 12 -3 19 -3 16 1 -4 4 -20 8
-37 10 -16 3 -41 10 -54 17 -19 11 -20 14 -6 17 21 4 104 -33 111 -50 4 -10 8
-10 16 2 8 12 15 12 46 1 20 -7 39 -10 42 -7 4 3 -1 6 -10 6 -9 0 -17 5 -17
11 0 6 7 8 16 5 8 -3 13 -2 10 3 -3 5 13 13 37 19 35 9 42 15 42 35 0 19 -5
24 -25 24 -39 1 -70 7 -70 14 0 3 10 11 23 17 16 8 17 11 6 11 -9 1 -19 12
-21 25 -4 21 0 25 48 35 30 7 56 17 59 22 4 5 11 9 16 9 6 0 7 -5 3 -12 -4 -7
-3 -8 4 -4 7 4 12 14 12 22 0 17 16 19 24 2 4 -7 4 1 1 19 -2 18 -1 35 4 37
16 10 20 61 9 136 -6 41 -16 81 -22 89 -8 11 -8 13 2 7 6 -4 12 -3 12 2 0 5
11 7 25 5 23 -5 24 -10 28 -82 3 -72 3 -71 4 19 0 63 4 95 12 98 8 3 6 9 -6
18 -21 16 -42 19 -26 3 12 -12 6 -49 -9 -49 -5 0 -8 6 -7 13 3 23 -1 37 -10
37 -5 0 -7 -8 -4 -19 3 -11 -2 -21 -13 -25 -17 -6 -34 8 -34 29 0 6 4 3 10 -5
12 -19 22 -8 14 14 -4 9 -13 15 -20 12 -8 -3 -14 -1 -14 5 0 7 10 9 25 5 15
-4 25 -2 25 4 0 14 49 7 59 -8 5 -9 82 -42 97 -42 2 0 4 11 4 24 0 21 -6 25
-42 31 -24 4 -51 12 -61 17 -12 6 -27 4 -48 -6 l-30 -15 5 32 c3 18 3 26 0 20
-3 -7 -12 -13 -20 -13 -17 0 -19 -17 -1 -23 7 -3 6 -6 -5 -6 -23 -1 -30 13
-22 44 5 19 9 23 19 15 9 -8 14 -7 18 3 4 10 -2 14 -21 13 -14 -1 -27 5 -30
13 -3 9 0 11 8 6 9 -6 10 -1 5 16 l-8 24 22 -25 c22 -25 22 -24 -1 17 -17 31
-25 38 -31 27 -4 -7 -16 -14 -25 -13 -10 0 -12 3 -4 6 14 6 17 83 2 83 -5 0
-10 -18 -10 -40 0 -31 -4 -40 -17 -41 -14 0 -14 -2 3 -9 29 -12 44 -34 17 -26
-12 4 -25 1 -32 -8 -17 -20 -55 -28 -83 -17 l-23 10 23 0 c13 1 20 5 17 11 -3
6 5 10 19 10 14 0 28 5 31 10 7 11 -38 4 -60 -9 -5 -3 -23 -4 -40 -3 -26 1
-27 0 -10 -8 15 -8 12 -9 -15 -4 -19 3 -41 12 -48 18 -10 10 -1 12 45 8 32 -2
55 -1 51 3 -5 5 -42 9 -84 10 -71 1 -79 3 -98 28 -12 15 -26 27 -30 27 -5 0
-3 -7 4 -15 7 -9 8 -15 2 -15 -10 0 -22 23 -22 41 0 13 42 0 52 -15 4 -6 10
-7 15 -2 8 8 -21 28 -47 33 -8 1 -20 -5 -27 -14 -11 -14 -12 -12 -10 10 1 15
-2 25 -8 24 -5 -1 -8 -9 -7 -17 2 -8 -8 0 -22 19 -21 28 -23 37 -13 50 10 12
9 14 -4 9 -17 -7 -39 8 -39 27 0 5 5 3 10 -5 7 -10 10 -11 10 -2 0 7 -6 15
-14 18 -8 3 -13 11 -10 19 6 14 -28 26 -45 15 -13 -7 -12 -80 1 -80 4 0 3 -12
-3 -27 -8 -21 -6 -30 6 -42 12 -13 17 -13 24 -3 5 9 11 5 19 -13 7 -14 12 -32
12 -40 0 -8 3 -15 8 -15 4 0 15 -12 25 -25 14 -19 15 -29 7 -45 -13 -24 -7
-26 14 -4 9 8 16 11 16 6 0 -13 -21 -29 -45 -34 -11 -3 1 -8 30 -12 54 -8 101
-24 93 -32 -3 -2 -17 0 -32 6 -15 5 -46 10 -69 10 -57 0 -140 24 -180 50 -25
17 -27 21 -9 17 14 -3 22 0 22 8 0 8 -9 10 -26 7 -19 -3 -25 -1 -20 7 4 6 10
9 14 7 4 -2 15 1 24 8 15 11 12 12 -20 10 -20 -1 -41 -2 -46 -3 -6 -1 -5 -6 2
-13 7 -7 12 -17 12 -22 0 -7 -3 -8 -8 -1 -4 6 -20 17 -37 26 -20 10 -29 22
-27 35 2 16 1 16 -7 4 -9 -13 -13 -13 -28 4 -17 18 -17 19 2 12 11 -4 16 -4
12 0 -4 4 5 15 20 25 l27 18 -33 -1 c-21 -1 -28 -4 -19 -9 7 -5 11 -9 8 -10
-3 0 -14 -2 -24 -4 -12 -2 -33 9 -55 31 -28 27 -33 36 -23 46 10 10 15 10 21
-1 5 -8 7 -21 3 -30 -4 -13 -1 -12 16 3 12 11 22 24 22 30 0 6 -4 5 -9 -3 -7
-11 -10 -9 -15 7 -5 15 -15 19 -44 18 -34 -1 -37 1 -37 26 -1 14 -6 32 -12 40
-6 7 -14 30 -18 50 -4 20 -13 39 -21 42 -8 3 -14 1 -14 -3 0 -5 6 -11 12 -13
9 -3 8 -9 -4 -22 -14 -13 -17 -32 -16 -82 2 -36 5 -67 9 -70 4 -2 5 -14 2 -27
-3 -15 -2 -18 4 -9 7 9 12 6 21 -13 7 -15 8 -25 2 -25 -6 0 -10 5 -10 12 0 6
-2 9 -5 6 -3 -3 0 -17 6 -32 9 -20 15 -23 22 -14 6 9 7 8 3 -4 -3 -10 2 -21
12 -27 23 -13 23 -79 0 -87 -10 -3 -26 -1 -36 5 -11 6 -22 7 -26 4 -3 -3 -6
-1 -6 6 0 7 -4 9 -10 6 -5 -3 -20 1 -32 10 -23 16 -23 16 7 11 l30 -6 -27 12
c-16 7 -28 16 -28 21 0 4 4 6 9 3 15 -10 81 -15 81 -6 0 13 -83 18 -102 6 -13
-8 -21 -7 -30 2 -11 11 -9 12 7 6 11 -4 17 -4 14 0 -4 4 -16 9 -29 11 -34 6
-54 26 -38 36 13 9 14 9 -24 13 -6 0 -13 8 -15 16 -3 10 -2 11 4 3 6 -8 13 -8
28 3 19 14 17 15 -18 11 -41 -5 -55 9 -51 51 0 12 -3 25 -9 29 -6 3 -7 2 -4
-3 3 -6 2 -16 -4 -24 -7 -12 -9 -9 -9 10 0 20 -2 22 -11 10 -8 -12 -9 -10 -4
9 5 15 3 21 -3 17 -5 -3 -13 1 -16 10 -9 24 -6 42 4 19 6 -13 9 -15 9 -5 0 8
-4 22 -9 30 -5 8 -10 11 -10 6 0 -6 -7 -1 -15 10 -15 19 -15 19 -31 -1 -10
-14 -14 -33 -11 -60 5 -42 -6 -24 -17 27 -3 15 -13 33 -21 41 -13 13 -12 17 2
29 15 11 16 11 10 -4 -3 -9 0 -22 8 -28 11 -9 12 -7 8 9 -3 13 -1 21 7 21 7 0
10 6 7 14 -6 16 29 53 40 43 3 -4 1 -7 -6 -7 -7 0 -9 -5 -5 -11 4 -8 12 -2 22
16 10 20 16 24 22 15 4 -7 13 -9 20 -5 12 7 29 11 73 14 9 0 17 5 17 10 0 6
-17 8 -37 5 l-38 -5 30 14 c17 7 39 12 50 9 20 -4 20 -4 1 10 -10 8 -16 20
-13 26 5 6 0 8 -13 5 -17 -5 -20 0 -20 30 0 57 -11 97 -27 97 -12 0 -14 -7 -8
-32z m-188 -308 c-3 -11 -1 -18 4 -14 12 7 11 -2 -2 -29 -9 -20 -8 -19 11 3
13 14 17 26 11 28 -15 5 -14 22 2 22 17 0 38 -78 23 -84 -6 -2 -3 -5 7 -5 9
-1 17 -9 18 -18 1 -10 6 -4 11 13 l10 31 24 -24 c13 -13 42 -48 64 -78 22 -29
44 -56 50 -60 18 -11 10 -30 -24 -55 -19 -14 -45 -44 -58 -68 -21 -39 -23 -55
-23 -180 0 -117 3 -142 18 -166 27 -40 31 -26 7 25 -28 63 -28 225 1 289 20
44 84 120 102 120 4 0 27 -13 50 -29 70 -48 127 -72 196 -85 58 -11 68 -16 81
-42 8 -16 16 -61 18 -100 4 -70 3 -72 -26 -93 -37 -26 -40 -26 -44 2 -4 31
-22 28 -26 -5 -4 -31 -9 -36 -86 -77 l-60 -31 -28 27 c-23 22 -31 24 -41 14
-10 -10 -7 -16 11 -31 12 -10 22 -21 22 -23 0 -9 -64 -26 -115 -30 -27 -2 -51
-9 -53 -16 -2 -6 -11 -11 -21 -11 -33 0 -85 137 -97 254 -7 67 25 271 52 334
8 19 10 32 4 32 -6 0 -15 10 -20 23 -8 20 -9 20 -10 2 0 -17 -2 -17 -10 -5 -6
9 -10 10 -10 3 0 -6 9 -19 21 -27 12 -8 18 -19 14 -26 -5 -8 -11 -6 -22 7 -13
17 -13 16 -3 -4 8 -18 8 -23 -2 -23 -9 0 -9 -3 2 -11 12 -8 9 -10 -12 -6 -31
5 -36 -4 -13 -23 12 -10 15 -10 15 0 0 8 2 11 4 9 3 -2 -4 -29 -15 -59 -11
-30 -17 -45 -15 -32 2 13 -2 35 -10 50 -13 25 -14 26 -14 5 0 -13 4 -23 8 -23
4 0 7 -21 6 -47 -1 -27 -3 -48 -4 -48 -1 0 -4 -13 -6 -30 -2 -16 -6 -41 -8
-55 -1 -14 -4 -38 -5 -55 -2 -16 -5 -24 -8 -17 -2 6 -9 10 -14 6 -5 -3 -9 4
-9 15 0 12 5 21 10 21 6 0 10 5 10 11 0 5 -5 7 -11 4 -7 -5 -9 6 -5 32 3 21 3
29 -1 18 -3 -11 -10 -23 -17 -27 -8 -5 -8 -10 1 -19 8 -8 9 -19 3 -35 -6 -15
-6 -24 0 -24 5 0 6 -8 3 -17 -6 -16 -5 -16 10 -4 14 11 17 11 18 0 0 -8 7 0
14 16 9 20 14 24 15 12 0 -10 -7 -31 -15 -47 -9 -18 -11 -30 -5 -30 6 0 15 10
21 23 l10 22 -5 -22 c-2 -13 0 -26 5 -29 5 -3 9 -10 9 -15 0 -6 -4 -8 -9 -5
-5 3 -11 0 -14 -8 -4 -9 0 -12 12 -9 11 3 21 -4 29 -21 10 -22 9 -26 -3 -26
-8 0 -17 0 -20 0 -3 0 -4 3 -2 8 1 4 6 6 11 4 5 -2 4 4 -3 12 -7 8 -19 12 -27
9 -12 -4 -14 0 -9 23 5 22 4 25 -4 14 -6 -8 -11 -12 -11 -7 0 15 -4 22 -22 42
-35 37 -58 138 -58 258 0 140 15 230 45 265 12 15 23 30 24 34 3 11 36 68 40
68 2 0 1 -9 -2 -20z m493 -31 c0 -6 -4 -7 -10 -4 -5 3 -10 11 -10 16 0 6 5 7
10 4 6 -3 10 -11 10 -16z m384 -75 c4 -10 2 -13 -6 -8 -8 5 -9 1 -4 -12 5 -14
4 -16 -4 -8 -6 6 -8 18 -4 27 8 21 10 21 18 1z m528 -136 c-7 -7 -12 -8 -12
-2 0 14 12 26 19 19 2 -3 -1 -11 -7 -17z m-879 -45 c-4 -11 -3 -14 5 -9 8 5
10 2 6 -9 -5 -11 -2 -14 11 -9 12 5 16 3 14 -5 -3 -7 -8 -12 -12 -12 -4 1 -16
1 -28 1 -14 0 -18 4 -12 13 4 6 6 23 4 36 -2 14 1 21 8 17 5 -4 7 -14 4 -23z
m887 -30 c0 -7 -5 -13 -11 -13 -5 0 -7 5 -4 10 3 6 2 10 -2 10 -5 0 -9 10 -10
21 -2 21 -1 21 12 3 8 -11 15 -25 15 -31z m-407 0 c-7 -2 -21 -2 -30 0 -10 3
-4 5 12 5 17 0 24 -2 18 -5z m125 -22 c90 -46 132 -120 140 -247 6 -101 22
-101 22 -1 0 90 -28 155 -93 215 l-47 42 58 0 c31 0 73 3 92 6 34 6 37 3 71
-48 56 -83 79 -125 90 -160 12 -44 -8 -143 -35 -174 -32 -37 -176 -83 -176
-56 0 4 9 21 20 39 22 37 15 46 -29 33 -29 -8 -30 -7 -20 12 18 34 -5 43 -31
11 -21 -26 -26 -28 -88 -26 -100 4 -124 13 -134 52 -10 36 -35 38 -30 1 3 -20
1 -22 -25 -16 -15 4 -57 24 -93 44 -65 37 -65 37 -68 85 -3 50 18 140 40 169
12 17 18 17 108 -2 52 -11 117 -20 143 -20 44 0 47 1 37 19 -23 45 -9 51 48
22z m-669 -398 c-13 -21 -28 -41 -33 -45 -22 -15 -114 -20 -137 -8 -22 12 -19
14 52 39 41 15 88 34 104 43 17 9 32 15 34 13 2 -2 -7 -21 -20 -42z m-379 -13
c12 -16 20 -30 17 -30 -2 0 -16 14 -30 30 -15 17 -23 30 -18 30 5 0 19 -13 31
-30z m-88 9 c16 -9 23 -8 29 2 5 8 9 9 9 3 0 -5 -5 -15 -12 -22 -16 -16 4 -16
21 1 9 7 12 8 7 0 -11 -20 5 -42 37 -49 32 -7 32 -7 7 -15 l-25 -7 28 -1 c15
-1 27 4 27 10 0 5 5 7 11 3 17 -10 -32 -34 -57 -28 -12 3 -24 2 -27 -3 -3 -5
11 -8 31 -7 20 1 44 -4 52 -10 13 -10 13 -9 0 8 -14 18 -13 19 15 12 17 -4 35
-12 40 -18 7 -7 3 -9 -12 -5 -13 3 -23 1 -23 -4 0 -5 5 -9 10 -9 6 0 10 -9 10
-20 0 -11 9 -25 20 -32 11 -7 20 -16 20 -20 0 -15 -44 -58 -59 -58 -11 0 -10
3 5 15 19 14 19 14 -1 15 l-20 1 20 9 c18 8 17 9 -7 9 -21 1 -26 5 -22 19 5
13 4 14 -4 3 -6 -8 -19 -11 -33 -7 -22 5 -22 5 2 -7 14 -6 24 -18 22 -24 -3
-7 1 -13 8 -13 7 0 10 -2 7 -5 -3 -3 -20 1 -38 9 -22 9 -28 15 -19 20 8 3 4 4
-8 2 -13 -2 -23 1 -23 7 0 7 -5 4 -11 -5 -10 -19 -69 -26 -69 -9 0 5 -9 7 -19
4 -25 -6 -91 15 -91 30 0 8 3 8 12 -1 9 -9 15 -9 27 1 12 9 13 9 7 0 -4 -8 -1
-13 9 -13 9 0 13 5 9 11 -4 8 0 9 15 4 22 -7 23 -6 25 41 2 23 -2 30 -17 32
-36 2 -59 47 -34 65 8 6 4 7 -11 4 -12 -3 -20 -1 -16 4 3 5 1 9 -5 9 -18 0
-23 -20 -7 -26 9 -3 16 -10 16 -15 0 -6 -9 -5 -20 1 -21 11 -28 40 -10 40 6 0
10 9 10 20 0 23 12 25 42 9 16 -9 23 -8 29 2 5 8 9 10 9 5 0 -6 5 -5 12 2 15
15 14 15 40 1z m214 -65 c-1 -8 -9 -20 -17 -25 -12 -7 -12 -9 0 -9 8 0 12 -2
10 -5 -9 -9 -49 8 -49 20 0 7 12 18 28 23 15 6 28 11 29 11 1 1 0 -6 -1 -15z
m1080 -14 c16 0 19 -36 4 -45 -5 -3 -10 1 -10 10 0 9 -4 13 -10 10 -5 -3 -10
0 -10 9 0 8 -3 16 -7 19 -5 2 -2 2 5 0 8 -1 20 -3 28 -3z m-1341 -60 c3 -5 1
-10 -4 -10 -6 0 -11 5 -11 10 0 6 2 10 4 10 3 0 8 -4 11 -10z m345 -35 c-7 -8
-18 -15 -26 -15 -7 0 -17 -8 -23 -17 -5 -10 -12 -15 -16 -12 -3 4 11 23 32 44
20 20 39 32 41 26 2 -7 -2 -18 -8 -26z m-343 -1 c-3 -3 -12 -4 -19 -1 -8 3 -5
6 6 6 11 1 17 -2 13 -5z m1326 -100 c3 -4 -1 -13 -9 -21 -18 -18 -27 -13 -18
11 6 17 16 20 27 10z m-828 -130 c66 -7 98 -14 93 -19 -2 -3 -42 -12 -89 -21
l-84 -16 -15 24 c-8 12 -30 40 -49 60 l-33 38 64 -30 c35 -16 86 -32 113 -36z"/>
<path d="M171 1466 c-7 -8 -8 -17 -3 -20 6 -3 13 1 16 10 9 23 2 28 -13 10z"/>
<path d="M226 1453 c-6 -14 -5 -15 5 -6 7 7 10 15 7 18 -3 3 -9 -2 -12 -12z"/>
<path d="M297 1414 c-4 -4 -7 -17 -7 -28 1 -19 1 -20 11 -3 11 19 8 43 -4 31z"/>
<path d="M136 1395 c4 -8 11 -15 16 -15 6 0 5 6 -2 15 -7 8 -14 15 -16 15 -2
0 -1 -7 2 -15z"/>
<path d="M133 1339 c-4 -22 -8 -27 -15 -17 -6 9 -7 6 -3 -9 3 -13 2 -23 -3
-23 -6 0 -7 -10 -4 -22 6 -23 6 -23 13 2 7 24 7 24 9 -5 2 -38 28 -109 29 -80
1 17 3 17 11 5 5 -8 10 -10 10 -5 0 6 -5 17 -10 25 -9 13 -10 13 -11 0 -1 -23
-17 20 -18 48 -1 13 3 20 9 17 6 -3 7 1 4 9 -3 9 -11 13 -17 9 -7 -4 -8 0 -4
11 4 10 7 25 8 34 0 14 2 13 9 -3 8 -17 8 -16 7 8 -2 36 -16 34 -24 -4z"/>
<path d="M103 1149 l-1 -74 10 54 c6 32 6 62 1 74 -6 14 -9 -2 -10 -54z"/>
<path d="M132 1160 c0 -14 2 -19 5 -12 2 6 2 18 0 25 -3 6 -5 1 -5 -13z"/>
<path d="M146 1125 c-9 -26 -7 -32 5 -12 6 10 9 21 6 23 -2 3 -7 -2 -11 -11z"/>
<path d="M121 1099 c0 -13 4 -33 9 -44 7 -14 8 -8 3 20 -7 46 -13 59 -12 24z"/>
<path d="M160 1100 c0 -5 5 -10 10 -10 6 0 10 5 10 10 0 6 -4 10 -10 10 -5 0
-10 -4 -10 -10z"/>
<path d="M171 1054 c0 -11 3 -14 6 -6 3 7 2 16 -1 19 -3 4 -6 -2 -5 -13z"/>
<path d="M121 984 c0 -11 3 -14 6 -6 3 7 2 16 -1 19 -3 4 -6 -2 -5 -13z"/>
<path d="M150 911 c0 -6 5 -13 10 -16 6 -3 10 1 10 9 0 9 -4 16 -10 16 -5 0
-10 -4 -10 -9z"/>
<path d="M125 730 c-3 -5 -1 -10 4 -10 6 0 11 5 11 10 0 6 -2 10 -4 10 -3 0
-8 -4 -11 -10z"/>
<path d="M150 730 c0 -6 7 -10 15 -10 8 0 15 2 15 4 0 2 -7 6 -15 10 -8 3 -15
1 -15 -4z"/>
<path d="M140 690 c0 -5 5 -10 10 -10 6 0 10 5 10 10 0 6 -4 10 -10 10 -5 0
-10 -4 -10 -10z"/>
<path d="M240 679 c0 -5 5 -7 10 -4 6 3 10 8 10 11 0 2 -4 4 -10 4 -5 0 -10
-5 -10 -11z"/>
<path d="M130 660 c0 -6 7 -10 15 -10 8 0 15 2 15 4 0 2 -7 6 -15 10 -8 3 -15
1 -15 -4z"/>
<path d="M321 604 c0 -11 3 -14 6 -6 3 7 2 16 -1 19 -3 4 -6 -2 -5 -13z"/>
<path d="M343 582 c2 -23 6 -31 16 -27 7 3 19 2 25 -2 7 -5 2 1 -10 12 -12 11
-24 27 -27 35 -3 8 -4 0 -4 -18z"/>
<path d="M180 539 c0 -5 5 -7 10 -4 6 3 10 8 10 11 0 2 -4 4 -10 4 -5 0 -10
-5 -10 -11z"/>
<path d="M600 1820 c13 -24 26 -26 34 -4 9 23 8 24 -19 24 -23 0 -24 -2 -15
-20z"/>
<path d="M1250 1814 c0 -23 -3 -25 -27 -20 -143 27 -258 38 -353 33 -161 -9
-258 -34 -221 -56 11 -7 11 -9 0 -14 -11 -4 -11 -6 -1 -6 7 -1 15 6 18 14 8
20 67 29 104 17 24 -9 30 -8 30 4 0 7 5 14 10 14 6 0 9 -3 9 -7 -5 -31 3 -36
19 -15 15 19 24 22 46 16 20 -5 24 -9 15 -15 -8 -4 -16 -3 -20 3 -4 7 -9 7
-13 0 -10 -17 20 -21 49 -6 29 15 50 10 38 -9 -4 -7 1 -6 10 2 22 17 17 22
-30 31 l-38 8 38 1 c21 0 47 -3 57 -9 10 -5 38 -11 62 -14 89 -8 148 -19 148
-27 0 -5 7 -6 15 -3 12 5 12 0 5 -28 -13 -43 -12 -58 1 -35 8 14 14 16 25 6
10 -8 14 -9 14 0 0 6 -7 14 -15 17 -8 4 -15 10 -15 15 0 5 11 2 25 -7 15 -10
25 -12 25 -5 0 7 26 12 68 13 l67 2 -63 3 c-58 4 -64 6 -73 31 -6 15 -8 37 -6
49 3 15 -1 23 -9 23 -8 0 -14 -11 -14 -26z"/>
<path d="M1559 1821 c7 -12 7 -38 1 -75 -13 -80 17 -148 74 -169 11 -5 16 -13
12 -23 -3 -8 -2 -13 3 -10 17 11 35 -26 37 -75 1 -27 -2 -51 -7 -55 -5 -3 -9
3 -9 12 0 10 -3 15 -6 11 -9 -9 6 -48 17 -42 5 4 9 2 9 -4 0 -5 -5 -13 -10
-16 -6 -4 -8 -10 -5 -15 3 -4 -3 -7 -12 -6 -9 2 -19 8 -21 14 -2 7 -10 12 -18
12 -8 0 -14 5 -14 10 0 17 18 11 34 -12 13 -18 16 -19 16 -6 0 9 -8 23 -18 30
-11 7 -21 20 -25 28 -4 10 -6 8 -7 -7 -5 -46 -5 -81 -1 -78 2 3 13 -2 25 -10
39 -28 127 -11 191 38 25 19 14 33 -14 18 -18 -10 -23 -5 -53 56 -34 69 -125
178 -158 188 -18 6 -18 8 -4 29 15 25 21 117 9 155 -4 14 -15 21 -31 21 -21 0
-23 -3 -15 -19z m158 -398 c-6 -13 -14 -23 -19 -23 -13 0 -9 17 8 34 14 15 14
17 0 22 -9 3 -13 10 -10 16 3 5 12 1 19 -8 9 -13 10 -24 2 -41z m34 -43 c5 0
9 -5 9 -11 0 -6 -10 -9 -22 -8 -13 2 -29 0 -35 -4 -8 -5 -13 -3 -13 7 0 8 9
18 20 21 11 4 21 16 21 28 2 17 3 15 6 -5 2 -16 9 -28 14 -28z"/>
<path d="M1825 1830 c3 -5 8 -10 11 -10 2 0 4 5 4 10 0 6 -5 10 -11 10 -5 0
-7 -4 -4 -10z"/>
<path d="M990 1770 c0 -5 5 -10 11 -10 5 0 7 5 4 10 -3 6 -8 10 -11 10 -2 0
-4 -4 -4 -10z"/>
<path d="M700 1740 c0 -5 5 -10 10 -10 6 0 10 5 10 10 0 6 -4 10 -10 10 -5 0
-10 -4 -10 -10z"/>
<path d="M538 1733 c7 -3 16 -2 19 1 4 3 -2 6 -13 5 -11 0 -14 -3 -6 -6z"/>
<path d="M476 1715 c-9 -26 -7 -32 5 -12 6 10 9 21 6 23 -2 3 -7 -2 -11 -11z"/>
<path d="M620 1720 c-24 -8 -23 -8 8 -9 17 -1 32 4 32 9 0 11 -5 11 -40 0z"/>
<path d="M540 1713 c-8 -4 -21 -12 -28 -20 -11 -11 -11 -13 2 -13 9 0 16 5 16
11 0 6 9 9 19 6 14 -3 18 -1 14 9 -3 8 -6 14 -7 13 0 0 -8 -3 -16 -6z"/>
<path d="M1360 1710 c0 -5 12 -10 28 -9 24 0 25 1 7 9 -27 12 -35 12 -35 0z"/>
<path d="M700 1701 c0 -8 90 -3 99 5 2 2 -19 4 -47 4 -29 0 -52 -4 -52 -9z"/>
<path d="M1436 1692 c-3 -4 4 -9 15 -9 23 -2 25 3 4 10 -8 4 -16 3 -19 -1z"/>
<path d="M628 1683 c6 -2 18 -2 25 0 6 3 1 5 -13 5 -14 0 -19 -2 -12 -5z"/>
<path d="M1368 1683 c7 -3 16 -2 19 1 4 3 -2 6 -13 5 -11 0 -14 -3 -6 -6z"/>
<path d="M1545 1633 c7 -24 -9 -33 -18 -10 -4 9 -6 9 -6 0 -1 -17 19 -27 31
-15 7 7 6 16 -1 29 -11 16 -11 16 -6 -4z"/>
<path d="M465 1620 c-3 -5 -1 -10 4 -10 6 0 11 5 11 10 0 6 -2 10 -4 10 -3 0
-8 -4 -11 -10z"/>
<path d="M420 1610 c0 -5 5 -10 10 -10 6 0 10 5 10 10 0 6 -4 10 -10 10 -5 0
-10 -4 -10 -10z"/>
<path d="M290 1590 c0 -6 7 -18 15 -26 9 -10 15 -11 15 -4 0 6 -7 18 -15 26
-9 10 -15 11 -15 4z"/>
<path d="M568 1575 c2 -14 8 -25 12 -25 4 0 5 11 2 25 -2 14 -8 25 -12 25 -4
0 -5 -11 -2 -25z"/>
<path d="M597 1589 c6 -6 9 -18 6 -25 -3 -8 0 -14 6 -14 6 0 11 4 11 9 0 19
-12 41 -23 41 -8 0 -8 -3 0 -11z"/>
<path d="M694 1585 c-3 -8 1 -23 8 -34 14 -19 14 -18 14 14 -1 36 -12 46 -22
20z"/>
<path d="M1608 1543 c2 -13 9 -23 14 -23 6 0 8 6 5 14 -3 7 -1 18 5 24 8 8 5
11 -9 9 -15 -1 -18 -7 -15 -24z"/>
<path d="M275 1549 c-11 -17 1 -21 15 -4 8 9 8 15 2 15 -6 0 -14 -5 -17 -11z"/>
<path d="M680 1531 c0 -5 5 -13 10 -16 6 -3 10 -2 10 4 0 5 -4 13 -10 16 -5 3
-10 2 -10 -4z"/>
<path d="M560 1510 c0 -11 2 -20 4 -20 2 0 6 9 9 20 3 11 1 20 -4 20 -5 0 -9
-9 -9 -20z"/>
<path d="M582 1488 c-4 -24 -5 -50 -1 -58 4 -8 11 -24 14 -35 4 -12 9 -15 12
-8 2 7 0 21 -6 32 -14 26 -15 73 -1 51 7 -11 10 -5 10 23 0 50 -17 47 -28 -5z"/>
<path d="M371 1504 c0 -11 3 -14 6 -6 3 7 2 16 -1 19 -3 4 -6 -2 -5 -13z"/>
<path d="M711 1504 c0 -11 3 -14 6 -6 3 7 2 16 -1 19 -3 4 -6 -2 -5 -13z"/>
<path d="M370 1466 c0 -9 5 -16 10 -16 6 0 10 4 10 9 0 6 -4 13 -10 16 -5 3
-10 -1 -10 -9z"/>
<path d="M1165 1430 c3 -5 8 -10 11 -10 2 0 4 5 4 10 0 6 -5 10 -11 10 -5 0
-7 -4 -4 -10z"/>
<path d="M1635 1430 c3 -5 8 -10 11 -10 2 0 4 5 4 10 0 6 -5 10 -11 10 -5 0
-7 -4 -4 -10z"/>
<path d="M562 1400 c0 -14 2 -19 5 -12 2 6 2 18 0 25 -3 6 -5 1 -5 -13z"/>
<path d="M1155 1400 c3 -5 8 -10 11 -10 2 0 4 5 4 10 0 6 -5 10 -11 10 -5 0
-7 -4 -4 -10z"/>
<path d="M790 1368 c0 -9 5 -20 10 -23 13 -8 13 5 0 25 -8 13 -10 13 -10 -2z"/>
<path d="M860 1329 c0 -5 5 -7 10 -4 6 3 10 8 10 11 0 2 -4 4 -10 4 -5 0 -10
-5 -10 -11z"/>
<path d="M1061 1310 c-1 -31 14 -57 23 -41 4 6 2 11 -4 11 -6 0 -9 3 -7 8 3 4
1 16 -4 27 -7 18 -8 18 -8 -5z"/>
<path d="M1087 1309 c4 -13 8 -18 11 -10 2 7 -1 18 -6 23 -8 8 -9 4 -5 -13z"/>
<path d="M870 1281 c0 -5 7 -12 16 -15 14 -5 15 -4 4 9 -14 17 -20 19 -20 6z"/>
<path d="M660 1260 c6 -11 15 -20 20 -20 14 0 12 9 -4 26 -21 20 -28 17 -16
-6z"/>
<path d="M1024 1262 c10 -12 23 -19 28 -16 11 7 11 7 -22 24 -25 13 -25 13 -6
-8z"/>
<path d="M1458 1273 c7 -3 16 -2 19 1 4 3 -2 6 -13 5 -11 0 -14 -3 -6 -6z"/>
<path d="M1007 1250 c9 -10 10 -17 1 -27 -8 -11 -7 -12 6 -7 21 8 20 18 -1 35
-15 11 -16 11 -6 -1z"/>
<path d="M1083 1232 c-58 -24 -60 -29 -15 -34 27 -2 38 0 35 8 -2 7 5 15 16
19 12 3 21 11 21 16 0 12 -7 11 -57 -9z"/>
<path d="M1510 1240 c-9 -6 -10 -10 -3 -10 6 0 15 5 18 10 8 12 4 12 -15 0z"/>
<path d="M652 1212 c2 -9 12 -18 23 -19 20 -3 20 -3 0 6 -19 9 -19 10 -1 10
22 1 14 14 -10 17 -9 2 -14 -4 -12 -14z"/>
<path d="M1683 1165 c0 -8 4 -15 9 -15 4 0 8 4 8 9 0 6 -4 12 -8 15 -5 3 -9
-1 -9 -9z"/>
<path d="M1800 1055 c0 -8 4 -15 10 -15 5 0 7 7 4 15 -4 8 -8 15 -10 15 -2 0
-4 -7 -4 -15z"/>
<path d="M1712 852 c-1 -28 -7 -45 -17 -48 -19 -8 -19 -24 0 -24 18 0 28 36
22 81 -3 31 -4 30 -5 -9z"/>
<path d="M1742 830 c0 -19 2 -27 5 -17 2 9 2 25 0 35 -3 9 -5 1 -5 -18z"/>
<path d="M1789 784 c-7 -9 -8 -18 -2 -26 18 -23 23 -47 9 -42 -7 3 -17 17 -22
32 -9 25 -9 23 -9 -16 0 -24 1 -39 3 -33 2 6 8 11 13 11 5 0 4 -10 -3 -22 -14
-27 -18 -59 -6 -52 4 3 8 14 8 25 0 10 5 19 11 19 6 0 9 -7 5 -15 -3 -8 -1
-15 4 -15 6 0 10 5 10 11 0 5 5 7 10 4 6 -4 8 -11 5 -16 -4 -5 -1 -9 4 -9 11
0 15 87 5 113 -3 10 -13 13 -27 9 -19 -5 -20 -3 -9 11 8 9 20 13 28 10 8 -3
14 -1 14 4 0 15 -38 13 -51 -3z m41 -38 c0 -3 -4 -8 -10 -11 -5 -3 -10 -1 -10
4 0 6 5 11 10 11 6 0 10 -2 10 -4z"/>
<path d="M795 716 c-28 -20 -6 -42 51 -51 62 -9 104 1 104 26 0 36 -115 55
-155 25z"/>
<path d="M1530 690 c-12 -8 -11 -10 7 -10 12 0 25 5 28 10 8 13 -15 13 -35 0z"/>
<path d="M1521 666 c12 -10 60 -16 54 -6 -3 5 -18 10 -32 10 -15 0 -24 -2 -22
-4z"/>
<path d="M720 619 c65 -91 199 -115 270 -49 39 37 39 59 0 26 -78 -65 -204
-50 -257 30 -8 13 -20 24 -25 24 -5 0 0 -14 12 -31z"/>
<path d="M1152 638 c-16 -16 -15 -48 2 -48 14 0 26 21 26 46 0 17 -12 18 -28
2z"/>
<path d="M1570 630 c-8 -5 -10 -10 -5 -10 6 0 17 5 25 10 8 5 11 10 5 10 -5 0
-17 -5 -25 -10z"/>
<path d="M1778 616 c-10 -7 -18 -17 -18 -21 0 -5 8 -1 18 7 9 9 24 18 32 21
13 5 13 5 0 6 -8 0 -23 -6 -32 -13z"/>
<path d="M1810 600 c-12 -8 -11 -10 8 -10 12 0 22 5 22 10 0 13 -11 13 -30 0z"/>
<path d="M1814 565 c-5 -12 -10 -13 -20 -4 -11 9 -14 6 -14 -19 0 -29 14 -42
46 -42 10 0 14 12 14 40 0 40 -15 54 -26 25z m6 -40 c10 -12 10 -15 -4 -15 -9
0 -16 7 -16 15 0 8 2 15 4 15 2 0 9 -7 16 -15z"/>
<path d="M1550 530 c-8 -5 -12 -11 -9 -14 2 -3 11 -1 19 4 8 5 12 11 9 14 -2
3 -11 1 -19 -4z"/>
<path d="M1574 495 c-9 -22 1 -29 15 -11 8 10 9 16 1 21 -5 3 -13 -1 -16 -10z"/>
<path d="M1388 493 c7 -3 16 -2 19 1 4 3 -2 6 -13 5 -11 0 -14 -3 -6 -6z"/>
<path d="M1760 496 c0 -2 7 -9 15 -16 13 -11 14 -10 9 4 -5 14 -24 23 -24 12z"/>
<path d="M1594 469 c-8 -13 24 -18 35 -6 7 9 5 13 -10 13 -11 0 -22 -3 -25 -7z"/>
<path d="M180 435 c-19 -9 -42 -23 -52 -32 -19 -17 -24 -43 -8 -43 6 0 9 5 8
12 -2 7 13 18 32 24 40 15 146 18 154 5 3 -4 -34 -36 -82 -70 -48 -34 -105
-75 -126 -91 -37 -28 -41 -29 -62 -15 -29 19 -44 19 -44 0 0 -8 12 -21 27 -29
16 -8 39 -26 53 -41 21 -23 25 -36 25 -91 0 -63 14 -82 25 -34 l6 23 17 -26
c10 -15 24 -27 33 -27 11 0 9 8 -10 33 -15 19 -26 38 -26 44 0 10 53 23 98 23
33 0 27 -18 -10 -29 -31 -10 -30 -10 17 -8 l50 2 -1 -32 c-2 -26 2 -33 17 -33
16 0 19 8 19 54 l0 54 -46 11 c-33 9 -61 9 -106 1 -33 -6 -61 -10 -62 -8 -1 2
-7 15 -14 30 -16 38 -7 56 24 50 23 -4 25 -2 23 20 -3 19 9 35 61 79 36 30 78
63 94 73 29 18 30 18 43 0 19 -26 26 -60 19 -89 -11 -42 -65 -94 -115 -110
l-46 -15 39 4 c93 12 162 103 138 184 -6 21 -27 53 -46 71 -42 41 -109 51
-166 26z"/>
<path d="M10 338 c0 -7 4 -19 9 -26 7 -11 10 -10 15 3 3 9 4 21 0 26 -8 13
-24 11 -24 -3z"/>
<path d="M1070 345 c0 -7 35 -94 65 -160 14 -33 38 -88 53 -122 19 -44 33 -63
45 -63 10 0 17 4 15 9 -25 68 -155 332 -165 335 -7 3 -13 3 -13 1z"/>
<path d="M117 169 c7 -7 15 -10 18 -7 3 3 -2 9 -12 12 -14 6 -15 5 -6 -5z"/>
<path d="M871 164 c0 -11 3 -14 6 -6 3 7 2 16 -1 19 -3 4 -6 -2 -5 -13z"/>
<path d="M10 150 c-16 -30 -9 -74 13 -78 14 -3 17 4 17 47 0 53 -12 65 -30 31z"/>
<path d="M926 39 c-28 -22 -34 -39 -13 -39 7 0 21 14 30 30 21 35 19 37 -17 9z"/>
<path d="M1825 10 c-3 -5 -1 -10 4 -10 6 0 11 5 11 10 0 6 -2 10 -4 10 -3 0
-8 -4 -11 -10z"/>
</g>
</svg>
